{"title":"Law and Order Criminal Intent Season 6 DVDRip Subs","uid":6511810,"size":11972151723,"categoryP":"video","categoryS":"tv_shows","magnet":"?xt=urn:btih:788e08f1332725de257fdb0c97e4d180bb843710&amp;dn=Law+and+Order+Criminal+Intent+Season+6+DVDRip+Subs&amp;tr=udp%3A%2F%2Ftracker.openbittorrent.com%3A80&amp;tr=udp%3A%2F%2Fopen.demonii.com%3A1337&amp;tr=udp%3A%2F%2Ftracker.coppersurfer.tk%3A6969&amp;tr=udp%3A%2F%2Fexodus.desync.com%3A6969","seeders":7,"leechers":11,"uploader":"CrowTR","files":22,"time":1309654296,"description":"Format                           : MPEG-4\nFormat profile                   : Base Media / Version 2\nCodec ID                         : mp42\nOverall bit rate                 : 1 678 Kbps\n\nVideo\nID                               : 1\nFormat                           : MPEG-4 Visual\nFormat profile                   : AdvancedSimple@L5\nFormat settings, BVOP            : Yes\nFormat settings, QPel            : No\nFormat settings, GMC             : No warppoints\nFormat settings, Matrix          : Default (H.263)\nCodec ID                         : 20\nBit rate mode                    : Variable\nBit rate                         : 1 585 Kbps\nMaximum bit rate                 : 4 120 Kbps\nWidth                            : 720 pixels\nHeight                           : 400 pixels\nDisplay aspect ratio             : 16:9\nFrame rate mode                  : Constant\nFrame rate                       : 23.976 fps\nResolution                       : 24 bits\nColorimetry                      : 4:2:0\nScan type                        : Progressive\nBits/(Pixel*Frame)               : 0.230\nStream size                      : 489 MiB (94%)\nWriting library                  : em4v 4.1.6.5\nLanguage                         : English\n\nAudio\nID                               : 2\nFormat                           : AAC\nFormat/Info                      : Advanced Audio Codec\nFormat version                   : Version 4\nFormat profile                   : LC\nFormat settings, SBR             : No\nCodec ID                         : 40\nDuration                         : 43mn 9s\nBit rate mode                    : Variable\nBit rate                         : 80.7 Kbps\nMaximum bit rate                 : 115 Kbps\nChannel(s)                       : 2 channels\nChannel positions                : L R\nSampling rate                    : 44.1 KHz\nResolution                       : 16 bits\nStream size                      : 24.9 MiB (5%)\nLanguage                         : English\n\nText\nID                               : 3\nFormat                           : VobSub\nCodec ID                         : subp\nCodec ID/Info                    : The same subtitle format used on DVDs\nDuration                         : 42mn 10s\nBit rate mode                    : Variable\nBit rate                         : 5 792 bps\nStream size                      : 1.75 MiB (0%)\nTitle                            : English\nLanguage                         : English","torrent":{"xt":"urn:btih:788e08f1332725de257fdb0c97e4d180bb843710","amp;dn":"Law+and+Order+Criminal+Intent+Season+6+DVDRip+Subs","amp;tr":["udp%3A%2F%2Ftracker.openbittorrent.com%3A80","udp%3A%2F%2Fopen.demonii.com%3A1337","udp%3A%2F%2Ftracker.coppersurfer.tk%3A6969","udp%3A%2F%2Fexodus.desync.com%3A6969"],"infoHash":"788e08f1332725de257fdb0c97e4d180bb843710","infoHashBuffer":{"type":"Buffer","data":[120,142,8,241,51,39,37,222,37,127,219,12,151,228,209,128,187,132,55,16]},"announce":[],"urlList":[]}}